<svg id="Capa_1" enable-background="new 0 0 512 512" height="512" viewBox="0 0 512 512" width="512" xmlns="http://www.w3.org/2000/svg"><g><path d="m504.928 233.267c-4.397-2.739-9.897-3.013-14.548-.727l-70.38 34.613v157.694l70.38 34.613c2.094 1.03 4.359 1.54 6.619 1.54 2.76 0 5.511-.761 7.929-2.267 4.398-2.738 7.072-7.552 7.072-12.733v-200c0-5.181-2.674-9.995-7.072-12.733z"/><path d="m105 211c49.626 0 90-40.374 90-90s-40.374-90-90-90-90 40.374-90 90 40.374 90 90 90zm0-135c24.813 0 45 20.187 45 45s-20.187 45-45 45-45-20.187-45-45 20.187-45 45-45z"/><circle cx="105" cy="121" r="15"/><circle cx="285" cy="121" r="15"/><path d="m285 211c49.626 0 90-40.374 90-90s-40.374-90-90-90-90 40.374-90 90 40.374 90 90 90zm0-135c24.813 0 45 20.187 45 45s-20.187 45-45 45-45-20.187-45-45 20.187-45 45-45z"/><path d="m230 301h80v60h-80z"/><path d="m358.093 216.101c-20.255 15.604-45.607 24.899-73.093 24.899-30.362 0-58.121-11.34-79.279-30h-21.442c-21.158 18.66-48.917 30-79.279 30-27.486 0-52.838-9.295-73.093-24.899-18.819 8.745-31.907 27.817-31.907 49.899v160c0 30.327 24.673 55 55 55h280c30.327 0 55-24.673 55-55v-160c0-22.082-13.088-41.154-31.907-49.899zm-223.093 219.899h-70c-8.284 0-15-6.716-15-15s6.716-15 15-15h70c8.284 0 15 6.716 15 15s-6.716 15-15 15zm0-60h-70c-8.284 0-15-6.716-15-15s6.716-15 15-15h70c8.284 0 15 6.716 15 15s-6.716 15-15 15zm205 0c0 8.284-6.716 15-15 15h-110c-8.284 0-15-6.716-15-15v-90c0-8.284 6.716-15 15-15h110c8.284 0 15 6.716 15 15z"/></g></svg>